# xmcd
#
# Track frame offsets:
#	150
#	20649
#	40039
#	57863
#	84828
#	108961
#	111992
#	127592
#	150630
#	176131
#	194505
#	204648
#
# Disc length: 2912 seconds
#
# Revision: 4
# Processed by: cddbd v1.5.2PL0 Copyright (c) Steve Scherf et al.
# Submitted via: Jack! The Knife
#
DISCID=970b5e0c
DTITLE=Megadeth - The System Has Failed
DYEAR=2004
DGENRE=Heavy Metal
TTITLE0=Blackmail The Universe
TTITLE1=Die Dead Enough
TTITLE2=Kick The Chair
TTITLE3=The Scorpion
TTITLE4=Tears In A Vial
TTITLE5=I Know Jack
TTITLE6=Back In The Day
TTITLE7=Something That I'm Not
TTITLE8=Truth Be Told
TTITLE9=Of Mice And Men
TTITLE10=Shadow Of Deth
TTITLE11=My Kingdom
EXTD=Dave Mustaine and Jeff Balding
EXTT0=
EXTT1=
EXTT2=
EXTT3=
EXTT4=
EXTT5=
EXTT6=
EXTT7=
EXTT8=
EXTT9=
EXTT10=
EXTT11=
PLAYORDER=
